# xmcd
#
# Track frame offsets:
#	150
#	11325
#	25719
#	40648
#	56631
#	66183
#	78905
#	93221
#	108627
#	124526
#	147441
#	156556
#	165540
#	179690
#	190487
#	202215
#	214019
#	225085
#	237717
#	251958
#	265372
#	277099
#	289150
#	303452
#	313223
#	325324
#
# Disc length: 4494 seconds
#
# Revision: 0
# Processed by: cddbd v1.5.2PL0 Copyright (c) Steve Scherf et al.
# Submitted via: EZCDAudioConverter 1.3.4.1
#
DISCID=89118c1a
DTITLE=John's Children - A Strange Affair 2/2
DYEAR=2013
DGENRE=
TTITLE0=Killer Ben
TTITLE1=Jagged Time Lapse
TTITLE2=Smashed! Blocked!
TTITLE3=You're A Nothing
TTITLE4=Not The Sort Of Girl
TTITLE5=Cold On Me
TTITLE6=Leave Me Alone
TTITLE7=Let Me Know
TTITLE8=Just What You Want - Just What You'll Get
TTITLE9=Why Do You Lie
TTITLE10=Strange Affair [Alternate Mix]
TTITLE11=But She's Mine [Alternate Mix]
TTITLE12=The Love I Thought I'd Found [First Version]
TTITLE13=Desdemona [''Why Do You Have To Lie'' Version]
TTITLE14=Remember Thomas À Becket [Alternate Version]
TTITLE15=Midsummer Night's Scene [Alternate Version]
TTITLE16=Sara, Crazy Child [German Single]
TTITLE17=Jagged Time Lapse [Alternate Version]
TTITLE18=It's Been A Long Time [Stereo Mix]
TTITLE19=You Can't Do That [Acetate Version]
TTITLE20=Hippy Gumbo [Marc Bolan Vocal]
TTITLE21=Not The Sort Of Girl You Take To Bed [Alternate Version]
TTITLE22=Sally Was An Angel [Instrumental]
TTITLE23=Come And Play With Me In The Garden [Instrumental]
TTITLE24=The Perfumed Garden Of Gulliver Smith [Instrumental]
TTITLE25=Midsummer Night's Scene [Alternate Mix]
EXTD=
EXTT0=
EXTT1=
EXTT2=
EXTT3=
EXTT4=
EXTT5=
EXTT6=
EXTT7=
EXTT8=
EXTT9=
EXTT10=
EXTT11=
EXTT12=
EXTT13=
EXTT14=
EXTT15=
EXTT16=
EXTT17=
EXTT18=
EXTT19=
EXTT20=
EXTT21=
EXTT22=
EXTT23=
EXTT24=
EXTT25=
PLAYORDER=
